G04 #@! TF.GenerationSoftware,KiCad,Pcbnew,(5.1.5)-1*
G04 #@! TF.CreationDate,2021-09-15T09:01:54+02:00*
G04 #@! TF.ProjectId,protest1,70726f74-6573-4743-912e-6b696361645f,rev?*
G04 #@! TF.SameCoordinates,PX59a0560PY71d9820*
G04 #@! TF.FileFunction,Legend,Top*
G04 #@! TF.FilePolarity,Positive*
%FSLAX46Y46*%
G04 Gerber Fmt 4.6, Leading zero omitted, Abs format (unit mm)*
G04 Created by KiCad (PCBNEW (5.1.5)-1) date 2021-09-15 09:01:54*
%MOMM*%
%LPD*%
G04 APERTURE LIST*
%ADD10C,0.120000*%
%ADD11C,0.150000*%
G04 APERTURE END LIST*
D10*
X36811000Y10160000D02*
G75*
G03X36811000Y10160000I-1251000J0D01*
G01*
X13951000Y10160000D02*
G75*
G03X13951000Y10160000I-1251000J0D01*
G01*
X25850000Y24130000D02*
G75*
G03X25850000Y24130000I-1720000J0D01*
G01*
X25850000Y24130000D02*
X28110000Y24130000D01*
X25850000Y43180000D02*
X28110000Y43180000D01*
X25850000Y43180000D02*
G75*
G03X25850000Y43180000I-1720000J0D01*
G01*
D11*
X34226666Y7457620D02*
X33893333Y7933810D01*
X33655238Y7457620D02*
X33655238Y8457620D01*
X34036190Y8457620D01*
X34131428Y8410000D01*
X34179047Y8362381D01*
X34226666Y8267143D01*
X34226666Y8124286D01*
X34179047Y8029048D01*
X34131428Y7981429D01*
X34036190Y7933810D01*
X33655238Y7933810D01*
X34655238Y7981429D02*
X34988571Y7981429D01*
X35131428Y7457620D02*
X34655238Y7457620D01*
X34655238Y8457620D01*
X35131428Y8457620D01*
X35893333Y7981429D02*
X35560000Y7981429D01*
X35560000Y7457620D02*
X35560000Y8457620D01*
X36036190Y8457620D01*
X36560000Y8457620D02*
X36560000Y8219524D01*
X36321904Y8314762D02*
X36560000Y8219524D01*
X36798095Y8314762D01*
X36417142Y8029048D02*
X36560000Y8219524D01*
X36702857Y8029048D01*
X37321904Y8457620D02*
X37321904Y8219524D01*
X37083809Y8314762D02*
X37321904Y8219524D01*
X37560000Y8314762D01*
X37179047Y8029048D02*
X37321904Y8219524D01*
X37464761Y8029048D01*
X11366666Y7457620D02*
X11033333Y7933810D01*
X10795238Y7457620D02*
X10795238Y8457620D01*
X11176190Y8457620D01*
X11271428Y8410000D01*
X11319047Y8362381D01*
X11366666Y8267143D01*
X11366666Y8124286D01*
X11319047Y8029048D01*
X11271428Y7981429D01*
X11176190Y7933810D01*
X10795238Y7933810D01*
X11795238Y7981429D02*
X12128571Y7981429D01*
X12271428Y7457620D02*
X11795238Y7457620D01*
X11795238Y8457620D01*
X12271428Y8457620D01*
X13033333Y7981429D02*
X12700000Y7981429D01*
X12700000Y7457620D02*
X12700000Y8457620D01*
X13176190Y8457620D01*
X13700000Y8457620D02*
X13700000Y8219524D01*
X13461904Y8314762D02*
X13700000Y8219524D01*
X13938095Y8314762D01*
X13557142Y8029048D02*
X13700000Y8219524D01*
X13842857Y8029048D01*
X14461904Y8457620D02*
X14461904Y8219524D01*
X14223809Y8314762D02*
X14461904Y8219524D01*
X14700000Y8314762D01*
X14319047Y8029048D02*
X14461904Y8219524D01*
X14604761Y8029048D01*
X25336666Y26397620D02*
X25003333Y26873810D01*
X24765238Y26397620D02*
X24765238Y27397620D01*
X25146190Y27397620D01*
X25241428Y27350000D01*
X25289047Y27302381D01*
X25336666Y27207143D01*
X25336666Y27064286D01*
X25289047Y26969048D01*
X25241428Y26921429D01*
X25146190Y26873810D01*
X24765238Y26873810D01*
X25765238Y26921429D02*
X26098571Y26921429D01*
X26241428Y26397620D02*
X25765238Y26397620D01*
X25765238Y27397620D01*
X26241428Y27397620D01*
X27003333Y26921429D02*
X26670000Y26921429D01*
X26670000Y26397620D02*
X26670000Y27397620D01*
X27146190Y27397620D01*
X27670000Y27397620D02*
X27670000Y27159524D01*
X27431904Y27254762D02*
X27670000Y27159524D01*
X27908095Y27254762D01*
X27527142Y26969048D02*
X27670000Y27159524D01*
X27812857Y26969048D01*
X28431904Y27397620D02*
X28431904Y27159524D01*
X28193809Y27254762D02*
X28431904Y27159524D01*
X28670000Y27254762D01*
X28289047Y26969048D02*
X28431904Y27159524D01*
X28574761Y26969048D01*
X25336666Y45447620D02*
X25003333Y45923810D01*
X24765238Y45447620D02*
X24765238Y46447620D01*
X25146190Y46447620D01*
X25241428Y46400000D01*
X25289047Y46352381D01*
X25336666Y46257143D01*
X25336666Y46114286D01*
X25289047Y46019048D01*
X25241428Y45971429D01*
X25146190Y45923810D01*
X24765238Y45923810D01*
X25765238Y45971429D02*
X26098571Y45971429D01*
X26241428Y45447620D02*
X25765238Y45447620D01*
X25765238Y46447620D01*
X26241428Y46447620D01*
X27003333Y45971429D02*
X26670000Y45971429D01*
X26670000Y45447620D02*
X26670000Y46447620D01*
X27146190Y46447620D01*
X27670000Y46447620D02*
X27670000Y46209524D01*
X27431904Y46304762D02*
X27670000Y46209524D01*
X27908095Y46304762D01*
X27527142Y46019048D02*
X27670000Y46209524D01*
X27812857Y46019048D01*
X28431904Y46447620D02*
X28431904Y46209524D01*
X28193809Y46304762D02*
X28431904Y46209524D01*
X28670000Y46304762D01*
X28289047Y46019048D02*
X28431904Y46209524D01*
X28574761Y46019048D01*
M02*
